inDegrees=no
num_controls=7
num_derivatives=13
num_iterations=117
num_multipliers=7
num_parameters=0
num_slacks=7
num_states=26
objective=0.444927
objective_accelerations=0.058424
objective_balance=0.003670
objective_effort=0.023545
objective_height=0.353789
objective_ligament=0.005499
solver_duration=1765.468116
status=Solve_Succeeded
success=true
DataType=double
version=3
OpenSimVersion=4.5
endheader
time	/jointset/ground_pelvis/pelvis_tilt/value	/jointset/ground_pelvis/pelvis_tx/value	/jointset/ground_pelvis/pelvis_ty/value	/jointset/hip_l/hip_flexion_l/value	/jointset/hip_l/hip_adduction_l/value	/jointset/hip_l/hip_rotation_l/value	/jointset/back/lumbar_extension/value	/jointset/patellofemoral_l/patellar_flexion_l/value	/jointset/knee_l/knee_flexion_l/value	/jointset/knee_l/knee_adduction_l/value	/jointset/knee_l/knee_rotation_l/value	/jointset/ankle_l/ankle_angle_l/value	/jointset/subtalar_l/subtalar_angle_l/value	/jointset/ground_pelvis/pelvis_tilt/speed	/jointset/ground_pelvis/pelvis_tx/speed	/jointset/ground_pelvis/pelvis_ty/speed	/jointset/hip_l/hip_flexion_l/speed	/jointset/hip_l/hip_adduction_l/speed	/jointset/hip_l/hip_rotation_l/speed	/jointset/back/lumbar_extension/speed	/jointset/patellofemoral_l/patellar_flexion_l/speed	/jointset/knee_l/knee_flexion_l/speed	/jointset/knee_l/knee_adduction_l/speed	/jointset/knee_l/knee_rotation_l/speed	/jointset/ankle_l/ankle_angle_l/speed	/jointset/subtalar_l/subtalar_angle_l/speed	/forceset/tau_hip_flexion_l	/forceset/tau_hip_adduction_l	/forceset/tau_hip_rotation_l	/forceset/tau_knee_flexion_l	/forceset/tau_ankle_angle_l	/forceset/tau_subtalar_angle_l	/forceset/tau_lumbar_extension	lambda_cid13_p0	lambda_cid13_p1	lambda_cid13_p2	lambda_cid13_p3	lambda_cid13_p4	lambda_cid13_p5	lambda_cid14_p0	/jointset/ground_pelvis/pelvis_tilt/accel	/jointset/ground_pelvis/pelvis_tx/accel	/jointset/ground_pelvis/pelvis_ty/accel	/jointset/hip_l/hip_flexion_l/accel	/jointset/hip_l/hip_adduction_l/accel	/jointset/hip_l/hip_rotation_l/accel	/jointset/back/lumbar_extension/accel	/jointset/patellofemoral_l/patellar_flexion_l/accel	/jointset/knee_l/knee_flexion_l/accel	/jointset/knee_l/knee_adduction_l/accel	/jointset/knee_l/knee_rotation_l/accel	/jointset/ankle_l/ankle_angle_l/accel	/jointset/subtalar_l/subtalar_angle_l/accel	gamma_cid13_p0	gamma_cid13_p1	gamma_cid13_p2	gamma_cid13_p3	gamma_cid13_p4	gamma_cid13_p5	gamma_cid14_p0
1.5	-0.3789070987657862	-0.02820877794387623	0.7592749269995068	1.125430924823991	-0.4342750497959734	-0.2104361583155172	-0.2255961295280585	0.805438435349132	0.8054384353490588	-0.1305500949643971	-0.1449044636855689	0.1212143418860256	-0.02237583578647657	0.705488053329406	0.2859984557390294	0.5441683486221331	-2.514517388138993	0.2076868937038073	-0.7172332554090167	0.3134973461260977	-2.01968126129414	-2.019681261294092	-0.1320231636203196	0.1371489059019534	-0.37602298592773	0.04709523465872965	-0.1801425628031001	0.02667375163081212	-0.007915458205479928	-0.1998545758163568	0.04208049774889244	0.04598563718527359	0.1719461677468408	-18.5544810771026	-19.63629043474457	6.122543297714545	-7.29886907817199	-519.2957326153964	-62.86710246260746	-24.90383653732096	0.7120080013123192	0.7152967877381136	-0.5334714759477555	-1.304749377619832	0.7110757285882223	-0.181654171611817	1.477419136212578	-1.304193619067183	-1.30419361906718	0.1309158931667082	0.2270721504114717	-0.5165327834079734	0.5027079370493823	4.839044090852391e-07	4.951828072880165e-07	-2.7899163582326e-06	-9.879030436261488e-08	7.029791627483052e-07	-1.12338374779219e-07	4.531774568130164e-07
1.51	-0.3718167265093931	-0.02531322124532197	0.764688868417887	1.100222204357238	-0.4321641692977325	-0.2176167058588631	-0.2223885423396477	0.7851788772879104	0.7851788772878887	-0.1318665931130175	-0.1435232812747144	0.1174286598555838	-0.02188145663129788	0.7124788157951867	0.2930838377316546	0.5385053478596692	-2.526883734712412	0.2144635540529606	-0.7187556888692902	0.3279938775430339	-2.031943095087623	-2.031943095087597	-0.1312910937724423	0.1390858358392411	-0.3810297286072088	0.05178811846425698	-0.1737853834400313	0.02570314412352409	-0.00759306683024243	-0.1974420427093325	0.04259779514940175	0.04519949109083926	0.166847804669985	-18.16717998633196	-19.36776840910693	6.085544328163674	-7.357080950021147	-515.2668772813548	-63.05736338776546	-25.81941923770082	0.6764877014373185	0.7008414999581842	-0.5997927208003798	-1.151109182238489	0.6570998989532247	-0.1191090210476666	1.431838042505287	-1.144166924098435	-1.144166924101781	0.04234958796284624	0.1764432814989745	-0.480147275686166	0.45364004681508	4.123287917796926e-07	1.072589457509211e-06	-1.81024483633127e-06	9.686349497470411e-08	6.011375236477873e-07	2.198630847644608e-08	4.083255001407323e-07
1.52	-0.3646596711618972	-0.02234767420785478	0.7700427641597615	1.074900114047743	-0.4299862944538251	-0.2248087919543749	-0.2190367762574536	0.7648053031558318	0.7648053031558625	-0.1331761711516876	-0.1421228415912628	0.1135954299452536	-0.02133993634916175	0.7188246715500233	0.2999965235216155	0.5321592133210178	-2.537191356687252	0.2210857628370883	-0.7195409658420658	0.3423331248828173	-2.042484475465492	-2.042484475465489	-0.1306391416299806	0.141000360420991	-0.3855325619054211	0.05652346005021105	-0.167428204076973	0.02473253661623302	-0.007270675455016252	-0.1950295096023074	0.04311509254991182	0.04441334499640327	0.1617494415931197	-17.78295089894688	-19.10085988564454	6.051260969679542	-7.440934558497062	-511.3002507820088	-63.29315990738658	-26.73444182923081	0.5830266591235124	0.6807575472052685	-0.6700982311852708	-0.8930044579040189	0.6801854155831076	-0.03422287411220739	1.445962320781997	-0.960102935944573	-0.9601029359445518	0.1148923520835989	0.2225910793039123	-0.4157509071546808	0.5111994931347246	3.911731176825686e-07	1.329832733941527e-06	-1.439638248997896e-06	1.764301240048298e-07	5.824845796743813e-07	1.147439535939379e-07	3.936435133672624e-07
1.53	-0.3574423735388614	-0.01931419640048241	0.7753298287413776	1.049485434126673	-0.42774302881759	-0.2320047688888126	-0.2155428280286618	0.744334717666893	0.7443347176669598	-0.1344799568778647	-0.1407030392381803	0.10971923832934	-0.02075116083581842	0.7245227054404371	0.3066360802965007	0.5251422330710367	-2.545360421736357	0.2275447682366292	-0.7195709857309355	0.3563919520366806	-2.051342474770574	-2.051342474770561	-0.130094129795301	0.1429375924119275	-0.3896566799264097	0.06122482809562053	-0.1614368923731898	0.02420286412667013	-0.006875874001041851	-0.1915511784735495	0.04176412980523556	0.04351363340908975	0.1567800642926905	-18.00855121734457	-18.6736589573267	5.986630732050998	-6.773519567902783	-507.316623452534	-63.36461565541577	-27.6488933844555	0.5463966115681061	0.6461329378714761	-0.7340805010704774	-0.7211887161327379	0.6254447607998102	0.02551319861293381	1.376157586884766	-0.8052103587126316	-0.8052103587111149	0.02801392042694752	0.1755113397939084	-0.4033496064911881	0.4486087720864924	4.235886332443931e-07	1.246902425723161e-06	-1.716163154642971e-06	1.326541345835637e-07	6.522196242735306e-07	1.633366206896212e-07	4.110171196112823e-07
1.54	-0.3501714546054076	-0.01621620738631296	0.7805434070046605	1.024000597317568	-0.4254358357956266	-0.2391984650731619	-0.2119102285934923	0.7237842397987213	0.7237842397988208	-0.1357775508214523	-0.1392646201490159	0.1058032840618327	-0.02011557097965248	0.7295489336335614	0.3128987648810334	0.5174619496544209	-2.551222734294222	0.2338712399825782	-0.7190848158243133	0.3700633661583957	-2.058462951312558	-2.058462951312535	-0.1294007851099478	0.1447237076350789	-0.3934850922242075	0.0658863286147274	-0.1554455806694114	0.02367319163710817	-0.006481072547143926	-0.1880728473447847	0.04041316706056096	0.04261392182177868	0.1518106869922558	-18.23664379050279	-18.2508572956789	5.928226550292192	-6.145626913167163	-503.3850213405194	-63.48727753054621	-28.56345895907866	0.4486655196656609	0.6053831091347787	-0.8027588645121928	-0.4316539596556836	0.6536786848647148	0.06901508498614885	1.368479714352343	-0.6125983833248602	-0.6125983833248732	0.1445589222183317	0.192367725746894	-0.3566097625165102	0.5032259878742006	4.32901502129643e-07	1.337615424835822e-06	-1.73137559900907e-06	1.447221604163857e-07	6.835811166835497e-07	2.173641452436971e-07	4.196193181432641e-07
1.55	-0.3428535883456479	-0.01305727583312974	0.7856769990661764	0.9984682192936368	-0.4230662347492833	-0.2463855757559981	-0.2081429186142976	0.7031714671433466	0.7031714671433869	-0.137067260698014	-0.1378098519136631	0.101850991013559	-0.01943350773215693	0.7339039218103276	0.318843388392094	0.5091562579681502	-2.554889625204044	0.2400088603755756	-0.7182196079462022	0.38334170803747	-2.06377886421906	-2.063778864218978	-0.1285546557238719	0.1462236438184	-0.3968767499382795	0.07052587898965351	-0.1489841259364727	0.02237726253515849	-0.006190350604161555	-0.1860637940147367	0.041232411364827	0.04146642055467557	0.1465689205492441	-17.79265969234647	-17.83451425083264	5.866736467319074	-6.140906287392028	-499.7970639946353	-63.53286437954853	-29.47942201865317	0.4108577761615715	0.5824310839979507	-0.8593723048000662	-0.2797090374618959	0.5877091634700408	0.1133121445382684	1.298973178248196	-0.4442638688011577	-0.444263868792345	0.05286920248046469	0.1275550689980077	-0.3158703257698087	0.4441172817329254	4.155961041918846e-07	1.628395712829871e-06	-1.445510642336365e-06	2.211322038245662e-07	6.707296033104427e-07	2.776535707824423e-07	4.181153295287679e-07
1.56	-0.335495783742225	-0.009840212222454682	0.7907245546140065	0.9729100718844433	-0.4206364764096195	-0.2535604266589907	-0.2042445328655997	0.6825149001340107	0.6825149001339904	-0.1383488634295851	-0.1363403346155951	0.09786769607816127	-0.0187050894370259	0.7375366023662734	0.3245251763794014	0.5002546469172566	-2.55637661134652	0.2459026986466852	-0.7166328598555034	0.3962785200590742	-2.067221822105096	-2.067221822104956	-0.1277793561106657	0.1476735201766521	-0.3996854696490423	0.07515733814182397	-0.1425226712035415	0.02108133343320633	-0.005899628661227058	-0.1840547406846847	0.04205165566909368	0.04031891928757132	0.141327154106226	-17.35039501671614	-17.42126590582128	5.809619588705852	-6.16821476015031	-496.2447131866076	-63.62621463928602	-30.39293633211604	0.3042039955015846	0.5528160043841326	-0.9219427374367959	0.004326993813655592	0.6049222604871658	0.2133231275037145	1.300173742858284	-0.2380073792320433	-0.2380073792320408	0.1303929676444073	0.1823557607330995	-0.2400221618547009	0.5016077433230662	3.866405708187082e-07	1.813249969410067e-06	-1.199654758839604e-06	2.822944500219263e-07	6.333535093427259e-07	3.21634931968765e-07	4.068927002539372e-07
1.57	-0.3281054060584818	-0.0065679192296172	0.7956801520453746	0.9473484657266071	-0.4181488651489676	-0.2607163949176401	-0.2002187197448433	0.6618334222446306	0.6618334222446076	-0.1396223710333244	-0.134856854414757	0.09385904006698	-0.01793031909541599	0.7404136723085837	0.3298607627791671	0.4907728675943041	-2.555553472993465	0.2515778713975003	-0.7144559806569913	0.4087874283641146	-2.068767194995792	-2.068767194995636	-0.1269262719952561	0.1490091991562996	-0.401981399857062	0.07977772867809202	-0.1363150570782818	0.01983611120947431	-0.005576466227478675	-0.1813602928665139	0.04151160352934105	0.03922888004601665	0.1361683057026519	-17.35902871960641	-16.95662592383928	5.747280224431077	-5.642408955253867	-492.8253295810143	-63.76383893576858	-31.28855458226529	0.2606588123502301	0.5131007739759069	-0.974986063664167	0.1799747641250788	0.5424194439881781	0.2359253369256658	1.211748015139238	-0.06689214084510908	-0.06689214084285464	0.06242993646235363	0.106941158786932	-0.2146677636757457	0.4392060798403131	3.431223681512594e-07	1.865696686722948e-06	-1.003810216812771e-06	3.243969497057612e-07	5.653216896317472e-07	3.452312127145599e-07	3.835217701536885e-07
1.58	-0.3206900176115647	-0.003244436209541437	0.8005381935767252	0.921806824453915	-0.4156057812284853	-0.2678473833801254	-0.1960707178128742	0.64114567264697	0.6411456726469484	-0.1408874150353089	-0.1333604639856868	0.08982936689103829	-0.0171099545742311	0.7425387550010747	0.3347631818270572	0.4807434669137614	-2.552383634317464	0.2569972306126965	-0.7116369006224519	0.4207162823016489	-2.068476163760761	-2.068476163760591	-0.1260866357609221	0.1502555658242019	-0.4038889026010878	0.08427617405682555	-0.1301074429530331	0.01859088898573749	-0.005253303793693705	-0.1786658450483485	0.04097155138958661	0.03813884080445433	0.1310094572990698	-17.37635815684536	-16.49408011807124	5.689406773159356	-5.121971613931396	-489.5376641629039	-63.95545363910018	-32.16053960963234	0.1538065455377264	0.466182534008981	-1.031467008954809	0.473667058402692	0.553759553363362	0.3417632947091885	1.184162869357061	0.1292734459130346	0.1292734459130384	0.127703391429294	0.1644932983840725	-0.1623366690559306	0.4772187118161635	3.0335617909881e-07	1.951868367443645e-06	-8.015758589811821e-07	3.667298522567539e-07	5.088973073356755e-07	3.651322334496221e-07	3.633585329789949e-07
